<svg width="181" height="39" viewBox="0 0 181 39" fill="none" xmlns="http://www.w3.org/2000/svg">
<rect x="1" y="1" width="179" height="37" stroke="#103F87" stroke-width="2"/>
<path d="M16.41 25.92C16.9833 25.92 17.4867 25.81 17.92 25.59C18.36 25.37 18.7033 25.0533 18.95 24.64C19.1967 24.2267 19.32 23.73 19.32 23.15C19.32 22.57 19.1867 22.0867 18.92 21.7C18.66 21.3133 18.31 21.0233 17.87 20.83C17.43 20.6367 16.9433 20.54 16.41 20.54H13.58C13.3933 20.54 13.2667 20.5767 13.2 20.65C13.14 20.7167 13.11 20.85 13.11 21.05V25.49C13.11 25.6633 13.14 25.78 13.2 25.84C13.2667 25.8933 13.39 25.92 13.57 25.92H16.41ZM13.63 18.96H16.15C16.63 18.96 17.0733 18.8767 17.48 18.71C17.8933 18.5367 18.2267 18.27 18.48 17.91C18.7333 17.5433 18.86 17.07 18.86 16.49C18.86 15.91 18.7367 15.4433 18.49 15.09C18.2433 14.7367 17.9167 14.48 17.51 14.32C17.1033 14.16 16.65 14.08 16.15 14.08H13.51C13.3567 14.08 13.25 14.11 13.19 14.17C13.1367 14.2233 13.11 14.33 13.11 14.49V18.5C13.11 18.7133 13.1433 18.8433 13.21 18.89C13.2767 18.9367 13.4167 18.96 13.63 18.96ZM16.67 27.5H8.6C8.42667 27.5 8.31333 27.4733 8.26 27.42C8.20667 27.3667 8.18 27.2533 8.18 27.08V26.25C8.18 26.1033 8.20667 26.0133 8.26 25.98C8.31333 25.94 8.40667 25.92 8.54 25.92H9.95C10.1167 25.92 10.23 25.8967 10.29 25.85C10.35 25.7967 10.38 25.6867 10.38 25.52V14.5C10.38 14.32 10.35 14.2067 10.29 14.16C10.2367 14.1067 10.12 14.08 9.94 14.08H8.59C8.41667 14.08 8.30333 14.06 8.25 14.02C8.20333 13.98 8.18 13.8733 8.18 13.7V12.88C8.18 12.7267 8.20333 12.6267 8.25 12.58C8.30333 12.5267 8.40333 12.5 8.55 12.5H16.21C17.3767 12.5 18.37 12.6367 19.19 12.91C20.01 13.1767 20.63 13.5933 21.05 14.16C21.4767 14.7267 21.69 15.4533 21.69 16.34C21.69 17.1933 21.4867 17.8833 21.08 18.41C20.6733 18.93 20.0733 19.3033 19.28 19.53C19.12 19.5767 19.0433 19.6333 19.05 19.7C19.0567 19.7667 19.1333 19.82 19.28 19.86C20.2533 20.0933 21.0067 20.49 21.54 21.05C22.08 21.61 22.35 22.36 22.35 23.3C22.35 24.32 22.1333 25.1367 21.7 25.75C21.2733 26.3633 20.6367 26.81 19.79 27.09C18.9433 27.3633 17.9033 27.5 16.67 27.5ZM25.2264 13.56C25.2264 13.12 25.3797 12.7667 25.6864 12.5C25.9931 12.2267 26.3597 12.09 26.7864 12.09C27.2197 12.09 27.5864 12.2267 27.8864 12.5C28.1931 12.7667 28.3464 13.12 28.3464 13.56C28.3464 13.9933 28.1931 14.3467 27.8864 14.62C27.5864 14.8933 27.2197 15.03 26.7864 15.03C26.3597 15.03 25.9931 14.8933 25.6864 14.62C25.3797 14.3467 25.2264 13.9933 25.2264 13.56ZM25.4064 18.5H24.0564C23.9564 18.5 23.8931 18.4867 23.8664 18.46C23.8397 18.4333 23.8264 18.37 23.8264 18.27V17.37C23.8264 17.19 23.9131 17.1 24.0864 17.1H27.9364C28.0231 17.1 28.0797 17.1133 28.1064 17.14C28.1331 17.16 28.1464 17.2167 28.1464 17.31V25.86C28.1464 25.9467 28.1597 26.01 28.1864 26.05C28.2131 26.0833 28.2697 26.1 28.3564 26.1H29.6964C29.7964 26.1 29.8631 26.11 29.8964 26.13C29.9297 26.15 29.9464 26.21 29.9464 26.31V27.24C29.9464 27.3467 29.9331 27.4167 29.9064 27.45C29.8797 27.4833 29.8097 27.5 29.6964 27.5H24.1164C24.0097 27.5 23.9331 27.4867 23.8864 27.46C23.8464 27.4333 23.8264 27.3667 23.8264 27.26V26.4C23.8264 26.2667 23.8464 26.1833 23.8864 26.15C23.9331 26.1167 24.0164 26.1 24.1364 26.1H25.3864C25.4997 26.1 25.5664 26.0833 25.5864 26.05C25.6131 26.0167 25.6264 25.9467 25.6264 25.84V18.75C25.6264 18.5833 25.5531 18.5 25.4064 18.5ZM32.0825 13.3H31.1225C30.9292 13.3 30.8125 13.2633 30.7725 13.19C30.7392 13.11 30.7225 12.9833 30.7225 12.81V12.3C30.7225 12.1067 30.7592 11.9933 30.8325 11.96C30.9058 11.92 31.0358 11.9 31.2225 11.9H34.5325C34.7392 11.9 34.8758 11.92 34.9425 11.96C35.0092 12 35.0425 12.1267 35.0425 12.34V25.64C35.0425 25.8267 35.0525 25.95 35.0725 26.01C35.0992 26.07 35.2125 26.1 35.4125 26.1H36.5525C36.6592 26.1 36.7325 26.12 36.7725 26.16C36.8192 26.1933 36.8425 26.2667 36.8425 26.38V27.06C36.8425 27.2667 36.8058 27.3933 36.7325 27.44C36.6658 27.48 36.5325 27.5 36.3325 27.5H31.1125C30.9658 27.5 30.8625 27.4833 30.8025 27.45C30.7492 27.41 30.7225 27.31 30.7225 27.15V26.47C30.7225 26.3367 30.7392 26.2433 30.7725 26.19C30.8125 26.13 30.8992 26.1 31.0325 26.1H32.1225C32.3158 26.1 32.4292 26.08 32.4625 26.04C32.5025 26 32.5225 25.88 32.5225 25.68V13.69C32.5225 13.5167 32.4925 13.41 32.4325 13.37C32.3792 13.3233 32.2625 13.3 32.0825 13.3ZM39.0552 13.3H38.0952C37.9018 13.3 37.7852 13.2633 37.7452 13.19C37.7118 13.11 37.6952 12.9833 37.6952 12.81V12.3C37.6952 12.1067 37.7318 11.9933 37.8052 11.96C37.8785 11.92 38.0085 11.9 38.1952 11.9H41.5052C41.7118 11.9 41.8485 11.92 41.9152 11.96C41.9818 12 42.0152 12.1267 42.0152 12.34V25.64C42.0152 25.8267 42.0252 25.95 42.0452 26.01C42.0718 26.07 42.1852 26.1 42.3852 26.1H43.5252C43.6318 26.1 43.7052 26.12 43.7452 26.16C43.7918 26.1933 43.8152 26.2667 43.8152 26.38V27.06C43.8152 27.2667 43.7785 27.3933 43.7052 27.44C43.6385 27.48 43.5052 27.5 43.3052 27.5H38.0852C37.9385 27.5 37.8352 27.4833 37.7752 27.45C37.7218 27.41 37.6952 27.31 37.6952 27.15V26.47C37.6952 26.3367 37.7118 26.2433 37.7452 26.19C37.7852 26.13 37.8718 26.1 38.0052 26.1H39.0952C39.2885 26.1 39.4018 26.08 39.4352 26.04C39.4752 26 39.4952 25.88 39.4952 25.68V13.69C39.4952 13.5167 39.4652 13.41 39.4052 13.37C39.3518 13.3233 39.2352 13.3 39.0552 13.3ZM46.4178 13.56C46.4178 13.12 46.5711 12.7667 46.8778 12.5C47.1845 12.2267 47.5511 12.09 47.9778 12.09C48.4111 12.09 48.7778 12.2267 49.0778 12.5C49.3845 12.7667 49.5378 13.12 49.5378 13.56C49.5378 13.9933 49.3845 14.3467 49.0778 14.62C48.7778 14.8933 48.4111 15.03 47.9778 15.03C47.5511 15.03 47.1845 14.8933 46.8778 14.62C46.5711 14.3467 46.4178 13.9933 46.4178 13.56ZM46.5978 18.5H45.2478C45.1478 18.5 45.0845 18.4867 45.0578 18.46C45.0311 18.4333 45.0178 18.37 45.0178 18.27V17.37C45.0178 17.19 45.1045 17.1 45.2778 17.1H49.1278C49.2145 17.1 49.2711 17.1133 49.2978 17.14C49.3245 17.16 49.3378 17.2167 49.3378 17.31V25.86C49.3378 25.9467 49.3511 26.01 49.3778 26.05C49.4045 26.0833 49.4611 26.1 49.5478 26.1H50.8878C50.9878 26.1 51.0545 26.11 51.0878 26.13C51.1211 26.15 51.1378 26.21 51.1378 26.31V27.24C51.1378 27.3467 51.1245 27.4167 51.0978 27.45C51.0711 27.4833 51.0011 27.5 50.8878 27.5H45.3078C45.2011 27.5 45.1245 27.4867 45.0778 27.46C45.0378 27.4333 45.0178 27.3667 45.0178 27.26V26.4C45.0178 26.2667 45.0378 26.1833 45.0778 26.15C45.1245 26.1167 45.2078 26.1 45.3278 26.1H46.5778C46.6911 26.1 46.7578 26.0833 46.7778 26.05C46.8045 26.0167 46.8178 25.9467 46.8178 25.84V18.75C46.8178 18.5833 46.7445 18.5 46.5978 18.5ZM54.5433 20.54C54.5433 20.9933 54.5933 21.42 54.6933 21.82C54.7999 22.2133 54.9766 22.5333 55.2233 22.78C55.4766 23.02 55.8233 23.14 56.2633 23.14C56.7033 23.14 57.0466 23.02 57.2933 22.78C57.5466 22.5333 57.7233 22.2133 57.8233 21.82C57.9299 21.42 57.9833 20.9933 57.9833 20.54C57.9833 20.0867 57.9299 19.6633 57.8233 19.27C57.7233 18.87 57.5466 18.55 57.2933 18.31C57.0466 18.0633 56.7033 17.94 56.2633 17.94C55.8233 17.94 55.4766 18.0633 55.2233 18.31C54.9766 18.55 54.7999 18.87 54.6933 19.27C54.5933 19.6633 54.5433 20.0867 54.5433 20.54ZM51.9833 20.54C51.9833 19.7867 52.1666 19.1333 52.5333 18.58C52.9066 18.0267 53.4133 17.6 54.0533 17.3C54.6999 16.9933 55.4366 16.84 56.2633 16.84C56.8699 16.84 57.4266 16.9233 57.9333 17.09C58.4399 17.2567 58.8799 17.4933 59.2533 17.8C59.3333 17.8667 59.3833 17.9 59.4033 17.9C59.4299 17.8933 59.4799 17.8533 59.5533 17.78C59.8799 17.4533 60.2299 17.2167 60.6033 17.07C60.9833 16.9167 61.3233 16.84 61.6233 16.84C62.0766 16.84 62.4633 16.92 62.7833 17.08C63.1099 17.2333 63.3599 17.45 63.5333 17.73C63.7066 18.0033 63.7933 18.3233 63.7933 18.69C63.7933 19.1367 63.6599 19.4767 63.3933 19.71C63.1333 19.9433 62.8233 20.06 62.4633 20.06C62.1099 20.06 61.8266 19.96 61.6133 19.76C61.3999 19.5533 61.2933 19.32 61.2933 19.06C61.2933 18.82 61.3299 18.6467 61.4033 18.54C61.4766 18.4267 61.5466 18.3367 61.6133 18.27C61.6866 18.2033 61.7233 18.12 61.7233 18.02C61.7233 17.86 61.6233 17.78 61.4233 17.78C61.2233 17.78 61.0099 17.8367 60.7833 17.95C60.5566 18.0633 60.3466 18.2567 60.1533 18.53C60.1066 18.5967 60.0766 18.65 60.0633 18.69C60.0499 18.73 60.0599 18.79 60.0933 18.87C60.3533 19.3767 60.4833 19.9333 60.4833 20.54C60.4833 21.2933 60.3033 21.9467 59.9433 22.5C59.5833 23.0533 59.0866 23.4833 58.4533 23.79C57.8199 24.09 57.0899 24.24 56.2633 24.24C56.1033 24.24 55.9499 24.2333 55.8033 24.22C55.6566 24.2067 55.5099 24.1867 55.3633 24.16C55.2433 24.1467 55.1499 24.1467 55.0833 24.16C55.0166 24.1667 54.9399 24.1933 54.8533 24.24C54.6199 24.36 54.4166 24.5 54.2433 24.66C54.0766 24.8133 53.9933 24.97 53.9933 25.13C53.9933 25.43 54.1399 25.62 54.4333 25.7C54.7266 25.78 55.1166 25.82 55.6033 25.82C55.7299 25.82 55.9066 25.82 56.1333 25.82C56.3599 25.8133 56.6033 25.81 56.8633 25.81C57.1299 25.81 57.3799 25.81 57.6133 25.81C57.8533 25.8033 58.0433 25.8 58.1833 25.8C58.6833 25.8 59.1599 25.8467 59.6133 25.94C60.0666 26.0333 60.4633 26.2 60.8033 26.44C61.1499 26.6733 61.4233 27 61.6233 27.42C61.8233 27.84 61.9233 28.3733 61.9233 29.02C61.9233 29.82 61.6899 30.4933 61.2233 31.04C60.7566 31.5933 60.1066 32.0133 59.2733 32.3C58.4399 32.5867 57.4699 32.73 56.3633 32.73C54.8166 32.73 53.5866 32.52 52.6733 32.1C51.7599 31.68 51.3033 31.0467 51.3033 30.2C51.3033 29.62 51.4833 29.12 51.8433 28.7C52.2099 28.28 52.6266 27.9567 53.0933 27.73C53.2333 27.6633 53.2933 27.62 53.2733 27.6C53.2599 27.58 53.1899 27.5367 53.0633 27.47C52.7633 27.31 52.5199 27.1 52.3333 26.84C52.1533 26.5733 52.0633 26.2333 52.0633 25.82C52.0633 25.3933 52.2033 25.0167 52.4833 24.69C52.7633 24.3633 53.1433 24.0933 53.6233 23.88C53.7899 23.8067 53.8633 23.7567 53.8433 23.73C53.8299 23.6967 53.7566 23.64 53.6233 23.56C53.1099 23.2467 52.7066 22.8333 52.4133 22.32C52.1266 21.8 51.9833 21.2067 51.9833 20.54ZM59.8833 29.6C59.8833 29.12 59.7299 28.73 59.4233 28.43C59.1166 28.13 58.6366 27.98 57.9833 27.98C57.8433 27.98 57.6299 27.98 57.3433 27.98C57.0566 27.98 56.7666 27.98 56.4733 27.98C56.1866 27.98 55.9699 27.98 55.8233 27.98C55.6166 27.98 55.4099 27.9767 55.2033 27.97C55.0033 27.97 54.8066 27.96 54.6133 27.94C54.5199 27.9267 54.4499 27.9233 54.4033 27.93C54.3633 27.9367 54.3199 27.9667 54.2733 28.02C54.0266 28.2733 53.8766 28.54 53.8233 28.82C53.7699 29.1 53.7433 29.34 53.7433 29.54C53.7433 30.16 53.9899 30.6333 54.4833 30.96C54.9766 31.2933 55.7099 31.46 56.6833 31.46C57.2433 31.46 57.7666 31.3933 58.2533 31.26C58.7399 31.1267 59.1333 30.92 59.4333 30.64C59.7333 30.3667 59.8833 30.02 59.8833 29.6Z" fill="#0E356F"/>
<path d="M77.41 25.92C77.9833 25.92 78.4867 25.81 78.92 25.59C79.36 25.37 79.7033 25.0533 79.95 24.64C80.1967 24.2267 80.32 23.73 80.32 23.15C80.32 22.57 80.1867 22.0867 79.92 21.7C79.66 21.3133 79.31 21.0233 78.87 20.83C78.43 20.6367 77.9433 20.54 77.41 20.54H74.58C74.3933 20.54 74.2667 20.5767 74.2 20.65C74.14 20.7167 74.11 20.85 74.11 21.05V25.49C74.11 25.6633 74.14 25.78 74.2 25.84C74.2667 25.8933 74.39 25.92 74.57 25.92H77.41ZM74.63 18.96H77.15C77.63 18.96 78.0733 18.8767 78.48 18.71C78.8933 18.5367 79.2267 18.27 79.48 17.91C79.7333 17.5433 79.86 17.07 79.86 16.49C79.86 15.91 79.7367 15.4433 79.49 15.09C79.2433 14.7367 78.9167 14.48 78.51 14.32C78.1033 14.16 77.65 14.08 77.15 14.08H74.51C74.3567 14.08 74.25 14.11 74.19 14.17C74.1367 14.2233 74.11 14.33 74.11 14.49V18.5C74.11 18.7133 74.1433 18.8433 74.21 18.89C74.2767 18.9367 74.4167 18.96 74.63 18.96ZM77.67 27.5H69.6C69.4267 27.5 69.3133 27.4733 69.26 27.42C69.2067 27.3667 69.18 27.2533 69.18 27.08V26.25C69.18 26.1033 69.2067 26.0133 69.26 25.98C69.3133 25.94 69.4067 25.92 69.54 25.92H70.95C71.1167 25.92 71.23 25.8967 71.29 25.85C71.35 25.7967 71.38 25.6867 71.38 25.52V14.5C71.38 14.32 71.35 14.2067 71.29 14.16C71.2367 14.1067 71.12 14.08 70.94 14.08H69.59C69.4167 14.08 69.3033 14.06 69.25 14.02C69.2033 13.98 69.18 13.8733 69.18 13.7V12.88C69.18 12.7267 69.2033 12.6267 69.25 12.58C69.3033 12.5267 69.4033 12.5 69.55 12.5H77.21C78.3767 12.5 79.37 12.6367 80.19 12.91C81.01 13.1767 81.63 13.5933 82.05 14.16C82.4767 14.7267 82.69 15.4533 82.69 16.34C82.69 17.1933 82.4867 17.8833 82.08 18.41C81.6733 18.93 81.0733 19.3033 80.28 19.53C80.12 19.5767 80.0433 19.6333 80.05 19.7C80.0567 19.7667 80.1333 19.82 80.28 19.86C81.2533 20.0933 82.0067 20.49 82.54 21.05C83.08 21.61 83.35 22.36 83.35 23.3C83.35 24.32 83.1333 25.1367 82.7 25.75C82.2733 26.3633 81.6367 26.81 80.79 27.09C79.9433 27.3633 78.9033 27.5 77.67 27.5ZM87.6664 22.1C87.6664 22.8867 87.7297 23.6167 87.8564 24.29C87.9831 24.9633 88.2131 25.5067 88.5464 25.92C88.8797 26.3267 89.3597 26.53 89.9864 26.53C90.4597 26.53 90.8464 26.4133 91.1464 26.18C91.4531 25.9467 91.6897 25.6367 91.8564 25.25C92.0231 24.8633 92.1397 24.4333 92.2064 23.96C92.2731 23.48 92.3064 22.9933 92.3064 22.5C92.3064 21.7133 92.2431 20.9833 92.1164 20.31C91.9897 19.6367 91.7597 19.0967 91.4264 18.69C91.0931 18.2767 90.6131 18.07 89.9864 18.07C89.5131 18.07 89.1231 18.1867 88.8164 18.42C88.5164 18.6533 88.2831 18.9633 88.1164 19.35C87.9497 19.7367 87.8331 20.17 87.7664 20.65C87.6997 21.1233 87.6664 21.6067 87.6664 22.1ZM84.8464 22.53C84.8464 21.4633 85.0397 20.5033 85.4264 19.65C85.8131 18.79 86.3864 18.1067 87.1464 17.6C87.9064 17.0933 88.8531 16.84 89.9864 16.84C91.1197 16.84 92.0664 17.0833 92.8264 17.57C93.5864 18.0567 94.1597 18.7 94.5464 19.5C94.9331 20.3 95.1264 21.1667 95.1264 22.1C95.1264 23.1667 94.9331 24.1267 94.5464 24.98C94.1597 25.8333 93.5864 26.51 92.8264 27.01C92.0664 27.51 91.1197 27.76 89.9864 27.76C88.8531 27.76 87.9064 27.52 87.1464 27.04C86.3864 26.5533 85.8131 25.9133 85.4264 25.12C85.0397 24.3267 84.8464 23.4633 84.8464 22.53ZM97.4794 13.3H96.3994C96.2594 13.3 96.1727 13.2833 96.1394 13.25C96.1127 13.21 96.0994 13.1233 96.0994 12.99V12.28C96.0994 12.1267 96.1194 12.0267 96.1594 11.98C96.1994 11.9267 96.2927 11.9 96.4394 11.9H99.9194C100.093 11.9 100.216 11.9233 100.289 11.97C100.369 12.01 100.409 12.1233 100.409 12.31V20.95C100.409 21.1633 100.429 21.2933 100.469 21.34C100.516 21.3867 100.603 21.3667 100.729 21.28L103.979 18.85C104.166 18.7167 104.263 18.6367 104.269 18.61C104.283 18.5767 104.123 18.56 103.789 18.56H102.779C102.613 18.56 102.509 18.5333 102.469 18.48C102.429 18.4267 102.409 18.3167 102.409 18.15V17.43C102.409 17.29 102.429 17.2 102.469 17.16C102.516 17.12 102.603 17.1 102.729 17.1H108.039C108.173 17.1 108.256 17.1233 108.289 17.17C108.329 17.21 108.349 17.3 108.349 17.44V18.22C108.349 18.36 108.326 18.4533 108.279 18.5C108.239 18.54 108.146 18.56 107.999 18.56H106.949C106.783 18.56 106.649 18.5767 106.549 18.61C106.456 18.6433 106.363 18.6967 106.269 18.77L103.209 21.17C103.069 21.2767 102.999 21.3567 102.999 21.41C102.999 21.4567 103.063 21.55 103.189 21.69L107.069 25.86C107.149 25.9467 107.223 26.01 107.289 26.05C107.356 26.0833 107.479 26.1 107.659 26.1H108.469C108.583 26.1 108.656 26.12 108.689 26.16C108.729 26.1933 108.749 26.2667 108.749 26.38V27.13C108.749 27.29 108.723 27.3933 108.669 27.44C108.623 27.48 108.519 27.5 108.359 27.5H103.459C103.319 27.5 103.229 27.4767 103.189 27.43C103.156 27.3833 103.139 27.2867 103.139 27.14V26.46C103.139 26.3067 103.159 26.21 103.199 26.17C103.239 26.1233 103.333 26.1 103.479 26.1H103.879C104.099 26.1 104.206 26.08 104.199 26.04C104.193 26 104.146 25.9333 104.059 25.84L100.659 22.26C100.573 22.1667 100.509 22.1267 100.469 22.14C100.429 22.1467 100.409 22.2567 100.409 22.47V25.72C100.409 25.8667 100.429 25.9667 100.469 26.02C100.509 26.0733 100.609 26.1 100.769 26.1H101.479C101.593 26.1 101.679 26.1167 101.739 26.15C101.799 26.1833 101.829 26.26 101.829 26.38V27.24C101.829 27.36 101.806 27.4333 101.759 27.46C101.713 27.4867 101.626 27.5 101.499 27.5H96.4294C96.296 27.5 96.206 27.4767 96.1594 27.43C96.1194 27.3767 96.0994 27.29 96.0994 27.17V26.35C96.0994 26.2433 96.1194 26.1767 96.1594 26.15C96.206 26.1167 96.286 26.1 96.3994 26.1H97.4994C97.666 26.1 97.7727 26.08 97.8194 26.04C97.8727 25.9933 97.8994 25.89 97.8994 25.73V13.67C97.8994 13.51 97.866 13.41 97.7994 13.37C97.7394 13.3233 97.6327 13.3 97.4794 13.3ZM113.942 18.84V25.73C113.942 25.8967 113.959 26 113.992 26.04C114.032 26.08 114.136 26.1 114.302 26.1H115.902C116.022 26.1 116.126 26.1167 116.212 26.15C116.299 26.1767 116.342 26.26 116.342 26.4V27.15C116.342 27.3033 116.316 27.4 116.262 27.44C116.216 27.48 116.119 27.5 115.972 27.5H109.962C109.822 27.5 109.729 27.48 109.682 27.44C109.642 27.4 109.622 27.31 109.622 27.17V26.42C109.622 26.2867 109.646 26.2 109.692 26.16C109.746 26.12 109.832 26.1 109.952 26.1H111.122C111.262 26.1 111.346 26.08 111.372 26.04C111.406 26 111.422 25.9167 111.422 25.79V18.84C111.422 18.7133 111.409 18.6267 111.382 18.58C111.362 18.5267 111.289 18.5 111.162 18.5H109.922C109.809 18.5 109.729 18.4867 109.682 18.46C109.642 18.4333 109.622 18.36 109.622 18.24V17.39C109.622 17.27 109.642 17.1933 109.682 17.16C109.722 17.12 109.802 17.1 109.922 17.1H111.132C111.266 17.1 111.346 17.0833 111.372 17.05C111.406 17.0167 111.422 16.93 111.422 16.79V16.06C111.422 15.2267 111.592 14.4767 111.932 13.81C112.272 13.1433 112.776 12.6167 113.442 12.23C114.116 11.8367 114.956 11.64 115.962 11.64C116.756 11.64 117.432 11.7567 117.992 11.99C118.552 12.2167 118.979 12.5167 119.272 12.89C119.566 13.2567 119.712 13.65 119.712 14.07C119.712 14.61 119.566 15.01 119.272 15.27C118.986 15.53 118.626 15.66 118.192 15.66C117.732 15.66 117.359 15.5467 117.072 15.32C116.792 15.0867 116.652 14.79 116.652 14.43C116.652 14.1967 116.696 14.0133 116.782 13.88C116.869 13.7467 116.952 13.6333 117.032 13.54C117.119 13.44 117.162 13.3333 117.162 13.22C117.162 13.1133 117.072 13.0167 116.892 12.93C116.719 12.8367 116.436 12.79 116.042 12.79C115.589 12.79 115.206 12.9233 114.892 13.19C114.579 13.4567 114.342 13.8633 114.182 14.41C114.022 14.9567 113.942 15.6533 113.942 16.5V16.83C113.942 16.9367 113.959 17.01 113.992 17.05C114.026 17.0833 114.092 17.1 114.192 17.1H116.272C116.412 17.1 116.506 17.1167 116.552 17.15C116.599 17.1767 116.622 17.2667 116.622 17.42V18.19C116.622 18.3367 116.606 18.4267 116.572 18.46C116.539 18.4867 116.449 18.5 116.302 18.5H114.262C114.129 18.5 114.042 18.5233 114.002 18.57C113.962 18.6167 113.942 18.7067 113.942 18.84ZM124.729 15.2C124.383 15.2 124.086 15.08 123.839 14.84C123.599 14.5933 123.479 14.2967 123.479 13.95C123.479 13.6033 123.599 13.31 123.839 13.07C124.086 12.8233 124.383 12.7 124.729 12.7C125.076 12.7 125.369 12.8233 125.609 13.07C125.856 13.31 125.979 13.6033 125.979 13.95C125.979 14.2967 125.856 14.5933 125.609 14.84C125.369 15.08 125.076 15.2 124.729 15.2ZM120.809 15.2C120.463 15.2 120.166 15.08 119.919 14.84C119.679 14.5933 119.559 14.2967 119.559 13.95C119.559 13.6033 119.679 13.31 119.919 13.07C120.166 12.8233 120.463 12.7 120.809 12.7C121.156 12.7 121.449 12.8233 121.689 13.07C121.936 13.31 122.059 13.6033 122.059 13.95C122.059 14.2967 121.936 14.5933 121.689 14.84C121.449 15.08 121.156 15.2 120.809 15.2ZM120.459 22.1C120.459 22.8867 120.523 23.6167 120.649 24.29C120.776 24.9633 121.006 25.5067 121.339 25.92C121.673 26.3267 122.153 26.53 122.779 26.53C123.253 26.53 123.639 26.4133 123.939 26.18C124.246 25.9467 124.483 25.6367 124.649 25.25C124.816 24.8633 124.933 24.4333 124.999 23.96C125.066 23.48 125.099 22.9933 125.099 22.5C125.099 21.7133 125.036 20.9833 124.909 20.31C124.783 19.6367 124.553 19.0967 124.219 18.69C123.886 18.2767 123.406 18.07 122.779 18.07C122.306 18.07 121.916 18.1867 121.609 18.42C121.309 18.6533 121.076 18.9633 120.909 19.35C120.743 19.7367 120.626 20.17 120.559 20.65C120.493 21.1233 120.459 21.6067 120.459 22.1ZM117.639 22.53C117.639 21.4633 117.833 20.5033 118.219 19.65C118.606 18.79 119.179 18.1067 119.939 17.6C120.699 17.0933 121.646 16.84 122.779 16.84C123.913 16.84 124.859 17.0833 125.619 17.57C126.379 18.0567 126.953 18.7 127.339 19.5C127.726 20.3 127.919 21.1667 127.919 22.1C127.919 23.1667 127.726 24.1267 127.339 24.98C126.953 25.8333 126.379 26.51 125.619 27.01C124.859 27.51 123.913 27.76 122.779 27.76C121.646 27.76 120.699 27.52 119.939 27.04C119.179 26.5533 118.606 25.9133 118.219 25.12C117.833 24.3267 117.639 23.4633 117.639 22.53ZM131.225 18.89C131.225 18.73 131.205 18.6267 131.165 18.58C131.125 18.5267 131.025 18.5 130.865 18.5H129.735C129.589 18.5 129.499 18.4767 129.465 18.43C129.439 18.3833 129.425 18.2867 129.425 18.14V17.46C129.425 17.32 129.445 17.2267 129.485 17.18C129.525 17.1267 129.615 17.1 129.755 17.1H133.275C133.395 17.1 133.482 17.1167 133.535 17.15C133.589 17.1833 133.615 17.2633 133.615 17.39V18.37C133.615 18.5567 133.629 18.6633 133.655 18.69C133.689 18.7167 133.745 18.6533 133.825 18.5C134.092 18.02 134.455 17.6233 134.915 17.31C135.375 16.9967 135.965 16.84 136.685 16.84C137.365 16.84 137.949 17.0267 138.435 17.4C138.929 17.7667 139.175 18.2867 139.175 18.96C139.175 19.26 139.112 19.55 138.985 19.83C138.859 20.1033 138.675 20.33 138.435 20.51C138.195 20.69 137.909 20.78 137.575 20.78C137.149 20.78 136.789 20.6667 136.495 20.44C136.202 20.2133 136.055 19.9167 136.055 19.55C136.055 19.29 136.099 19.09 136.185 18.95C136.272 18.8033 136.355 18.69 136.435 18.61C136.522 18.5233 136.565 18.44 136.565 18.36C136.565 18.2733 136.529 18.2067 136.455 18.16C136.389 18.1133 136.255 18.09 136.055 18.09C135.642 18.09 135.259 18.27 134.905 18.63C134.552 18.9833 134.269 19.4567 134.055 20.05C133.842 20.6367 133.735 21.2733 133.735 21.96V25.71C133.735 25.8633 133.752 25.9667 133.785 26.02C133.825 26.0733 133.925 26.1 134.085 26.1H135.275C135.402 26.1 135.475 26.1233 135.495 26.17C135.522 26.2167 135.535 26.3067 135.535 26.44V27.16C135.535 27.2933 135.519 27.3833 135.485 27.43C135.459 27.4767 135.385 27.5 135.265 27.5H129.745C129.639 27.5 129.559 27.4833 129.505 27.45C129.452 27.4167 129.425 27.3467 129.425 27.24V26.39C129.425 26.2633 129.445 26.1833 129.485 26.15C129.532 26.1167 129.615 26.1 129.735 26.1H130.795C130.955 26.1 131.065 26.08 131.125 26.04C131.192 26 131.225 25.9033 131.225 25.75V18.89ZM141.519 13.56C141.519 13.12 141.673 12.7667 141.979 12.5C142.286 12.2267 142.653 12.09 143.079 12.09C143.513 12.09 143.879 12.2267 144.179 12.5C144.486 12.7667 144.639 13.12 144.639 13.56C144.639 13.9933 144.486 14.3467 144.179 14.62C143.879 14.8933 143.513 15.03 143.079 15.03C142.653 15.03 142.286 14.8933 141.979 14.62C141.673 14.3467 141.519 13.9933 141.519 13.56ZM141.699 18.5H140.349C140.249 18.5 140.186 18.4867 140.159 18.46C140.133 18.4333 140.119 18.37 140.119 18.27V17.37C140.119 17.19 140.206 17.1 140.379 17.1H144.229C144.316 17.1 144.373 17.1133 144.399 17.14C144.426 17.16 144.439 17.2167 144.439 17.31V25.86C144.439 25.9467 144.453 26.01 144.479 26.05C144.506 26.0833 144.563 26.1 144.649 26.1H145.989C146.089 26.1 146.156 26.11 146.189 26.13C146.223 26.15 146.239 26.21 146.239 26.31V27.24C146.239 27.3467 146.226 27.4167 146.199 27.45C146.173 27.4833 146.103 27.5 145.989 27.5H140.409C140.303 27.5 140.226 27.4867 140.179 27.46C140.139 27.4333 140.119 27.3667 140.119 27.26V26.4C140.119 26.2667 140.139 26.1833 140.179 26.15C140.226 26.1167 140.309 26.1 140.429 26.1H141.679C141.793 26.1 141.859 26.0833 141.879 26.05C141.906 26.0167 141.919 25.9467 141.919 25.84V18.75C141.919 18.5833 141.846 18.5 141.699 18.5ZM148.825 18.5H147.625C147.499 18.5 147.419 18.4767 147.385 18.43C147.352 18.3833 147.335 18.2967 147.335 18.17V17.42C147.335 17.2933 147.362 17.21 147.415 17.17C147.469 17.1233 147.552 17.1 147.665 17.1H151.145C151.272 17.1 151.365 17.1333 151.425 17.2C151.492 17.2667 151.525 17.3633 151.525 17.49V18.42C151.525 18.68 151.545 18.8133 151.585 18.82C151.632 18.82 151.702 18.76 151.795 18.64C152.129 18.14 152.562 17.7167 153.095 17.37C153.629 17.0167 154.325 16.84 155.185 16.84C156.012 16.84 156.672 16.9667 157.165 17.22C157.659 17.4667 158.012 17.8333 158.225 18.32C158.439 18.8067 158.545 19.4067 158.545 20.12V25.66C158.545 25.84 158.565 25.96 158.605 26.02C158.652 26.0733 158.765 26.1 158.945 26.1H160.055C160.175 26.1 160.252 26.1233 160.285 26.17C160.325 26.2167 160.345 26.3 160.345 26.42V27.19C160.345 27.3367 160.319 27.4267 160.265 27.46C160.212 27.4867 160.109 27.5 159.955 27.5H154.745C154.612 27.5 154.532 27.4733 154.505 27.42C154.479 27.3667 154.465 27.2767 154.465 27.15V26.44C154.465 26.32 154.479 26.2333 154.505 26.18C154.539 26.1267 154.619 26.1 154.745 26.1H155.625C155.792 26.1 155.902 26.08 155.955 26.04C156.009 25.9933 156.035 25.8833 156.035 25.71V20.37C156.035 19.69 155.905 19.1833 155.645 18.85C155.392 18.51 154.985 18.34 154.425 18.34C153.892 18.34 153.415 18.49 152.995 18.79C152.575 19.0833 152.245 19.4933 152.005 20.02C151.765 20.5467 151.645 21.1533 151.645 21.84V25.7C151.645 25.8467 151.672 25.95 151.725 26.01C151.785 26.07 151.895 26.1 152.055 26.1H152.845C152.985 26.1 153.079 26.12 153.125 26.16C153.179 26.2 153.205 26.2967 153.205 26.45V27.18C153.205 27.3133 153.179 27.4 153.125 27.44C153.079 27.48 152.992 27.5 152.865 27.5H147.625C147.492 27.5 147.409 27.4767 147.375 27.43C147.349 27.3833 147.335 27.29 147.335 27.15V26.45C147.335 26.2967 147.362 26.2 147.415 26.16C147.469 26.12 147.565 26.1 147.705 26.1H148.745C148.899 26.1 149.002 26.0833 149.055 26.05C149.109 26.0167 149.135 25.9267 149.135 25.78V18.76C149.135 18.6467 149.112 18.5767 149.065 18.55C149.019 18.5167 148.939 18.5 148.825 18.5ZM163.922 20.54C163.922 20.9933 163.972 21.42 164.072 21.82C164.179 22.2133 164.356 22.5333 164.602 22.78C164.856 23.02 165.202 23.14 165.642 23.14C166.082 23.14 166.426 23.02 166.672 22.78C166.926 22.5333 167.102 22.2133 167.202 21.82C167.309 21.42 167.362 20.9933 167.362 20.54C167.362 20.0867 167.309 19.6633 167.202 19.27C167.102 18.87 166.926 18.55 166.672 18.31C166.426 18.0633 166.082 17.94 165.642 17.94C165.202 17.94 164.856 18.0633 164.602 18.31C164.356 18.55 164.179 18.87 164.072 19.27C163.972 19.6633 163.922 20.0867 163.922 20.54ZM161.362 20.54C161.362 19.7867 161.546 19.1333 161.912 18.58C162.286 18.0267 162.792 17.6 163.432 17.3C164.079 16.9933 164.816 16.84 165.642 16.84C166.249 16.84 166.806 16.9233 167.312 17.09C167.819 17.2567 168.259 17.4933 168.632 17.8C168.712 17.8667 168.762 17.9 168.782 17.9C168.809 17.8933 168.859 17.8533 168.932 17.78C169.259 17.4533 169.609 17.2167 169.982 17.07C170.362 16.9167 170.702 16.84 171.002 16.84C171.456 16.84 171.842 16.92 172.162 17.08C172.489 17.2333 172.739 17.45 172.912 17.73C173.086 18.0033 173.172 18.3233 173.172 18.69C173.172 19.1367 173.039 19.4767 172.772 19.71C172.512 19.9433 172.202 20.06 171.842 20.06C171.489 20.06 171.206 19.96 170.992 19.76C170.779 19.5533 170.672 19.32 170.672 19.06C170.672 18.82 170.709 18.6467 170.782 18.54C170.856 18.4267 170.926 18.3367 170.992 18.27C171.066 18.2033 171.102 18.12 171.102 18.02C171.102 17.86 171.002 17.78 170.802 17.78C170.602 17.78 170.389 17.8367 170.162 17.95C169.936 18.0633 169.726 18.2567 169.532 18.53C169.486 18.5967 169.456 18.65 169.442 18.69C169.429 18.73 169.439 18.79 169.472 18.87C169.732 19.3767 169.862 19.9333 169.862 20.54C169.862 21.2933 169.682 21.9467 169.322 22.5C168.962 23.0533 168.466 23.4833 167.832 23.79C167.199 24.09 166.469 24.24 165.642 24.24C165.482 24.24 165.329 24.2333 165.182 24.22C165.036 24.2067 164.889 24.1867 164.742 24.16C164.622 24.1467 164.529 24.1467 164.462 24.16C164.396 24.1667 164.319 24.1933 164.232 24.24C163.999 24.36 163.796 24.5 163.622 24.66C163.456 24.8133 163.372 24.97 163.372 25.13C163.372 25.43 163.519 25.62 163.812 25.7C164.106 25.78 164.496 25.82 164.982 25.82C165.109 25.82 165.286 25.82 165.512 25.82C165.739 25.8133 165.982 25.81 166.242 25.81C166.509 25.81 166.759 25.81 166.992 25.81C167.232 25.8033 167.422 25.8 167.562 25.8C168.062 25.8 168.539 25.8467 168.992 25.94C169.446 26.0333 169.842 26.2 170.182 26.44C170.529 26.6733 170.802 27 171.002 27.42C171.202 27.84 171.302 28.3733 171.302 29.02C171.302 29.82 171.069 30.4933 170.602 31.04C170.136 31.5933 169.486 32.0133 168.652 32.3C167.819 32.5867 166.849 32.73 165.742 32.73C164.196 32.73 162.966 32.52 162.052 32.1C161.139 31.68 160.682 31.0467 160.682 30.2C160.682 29.62 160.862 29.12 161.222 28.7C161.589 28.28 162.006 27.9567 162.472 27.73C162.612 27.6633 162.672 27.62 162.652 27.6C162.639 27.58 162.569 27.5367 162.442 27.47C162.142 27.31 161.899 27.1 161.712 26.84C161.532 26.5733 161.442 26.2333 161.442 25.82C161.442 25.3933 161.582 25.0167 161.862 24.69C162.142 24.3633 162.522 24.0933 163.002 23.88C163.169 23.8067 163.242 23.7567 163.222 23.73C163.209 23.6967 163.136 23.64 163.002 23.56C162.489 23.2467 162.086 22.8333 161.792 22.32C161.506 21.8 161.362 21.2067 161.362 20.54ZM169.262 29.6C169.262 29.12 169.109 28.73 168.802 28.43C168.496 28.13 168.016 27.98 167.362 27.98C167.222 27.98 167.009 27.98 166.722 27.98C166.436 27.98 166.146 27.98 165.852 27.98C165.566 27.98 165.349 27.98 165.202 27.98C164.996 27.98 164.789 27.9767 164.582 27.97C164.382 27.97 164.186 27.96 163.992 27.94C163.899 27.9267 163.829 27.9233 163.782 27.93C163.742 27.9367 163.699 27.9667 163.652 28.02C163.406 28.2733 163.256 28.54 163.202 28.82C163.149 29.1 163.122 29.34 163.122 29.54C163.122 30.16 163.369 30.6333 163.862 30.96C164.356 31.2933 165.089 31.46 166.062 31.46C166.622 31.46 167.146 31.3933 167.632 31.26C168.119 31.1267 168.512 30.92 168.812 30.64C169.112 30.3667 169.262 30.02 169.262 29.6Z" fill="#0E356F"/>
</svg>
